RBDS019runT45_grf
version=1
nRows=21
nColumns=19
inDegrees=no
endheader
time	ground_force_r_vx	ground_force_r_vy	ground_force_r_vz	ground_force_r_px	ground_force_r_py	ground_force_r_pz	ground_force_r_mx	ground_force_r_my	ground_force_r_mz	ground_force_l_vx	ground_force_l_vy	ground_force_l_vz	ground_force_l_px	ground_force_l_py	ground_force_l_pz	ground_force_l_mx	ground_force_l_my	ground_force_l_mz
     22.49800000	    203.87592945	    703.28883257	     18.01498639	      2.10948132	      0.00000000	      1.08225517	      0.00000000	     -2.67249960	      0.00000000	      0.00000000	      0.00000000	      0.00000000	      0.00000000	      0.00000000	      0.00000000	      0.00000000	      0.00000000	      0.00000000
     22.49900000	    202.78435973	    681.14075106	     18.93643691	      2.10660252	      0.00000000	      1.08221549	     -0.00000000	     -2.72874786	      0.00000000	      0.00000000	      0.00000000	      0.00000000	      0.00000000	      0.00000000	      0.00000000	      0.00000000	      0.00000000	      0.00000000
     22.50000000	    201.69279001	    658.99266955	     19.85788743	      2.10372372	      0.00000000	      1.08217581	     -0.00000000	     -2.78499613	      0.00000000	      0.00000000	      0.00000000	      0.00000000	      0.00000000	      0.00000000	      0.00000000	      0.00000000	      0.00000000	      0.00000000
     22.50100000	    199.89826838	    637.04831245	     20.56711349	      2.10110695	      0.00000000	      1.08216893	     -0.00000000	     -2.84822305	      0.00000000	      0.00000000	      0.00000000	      0.00000000	      0.00000000	      0.00000000	      0.00000000	      0.00000000	      0.00000000	      0.00000000
     22.50200000	    198.10374674	    615.10395534	     21.27633954	      2.09849018	      0.00000000	      1.08216206	     -0.00000000	     -2.91144997	      0.00000000	      0.00000000	      0.00000000	      0.00000000	      0.00000000	      0.00000000	      0.00000000	      0.00000000	      0.00000000	      0.00000000
     22.50300000	    196.30922511	    593.15959824	     21.98556559	      2.09587341	      0.00000000	      1.08215518	     -0.00000000	     -2.97467689	      0.00000000	      0.00000000	      0.00000000	      0.00000000	      0.00000000	      0.00000000	      0.00000000	      0.00000000	      0.00000000	      0.00000000
     22.50400000	    194.11023046	    571.51180910	     22.55893349	      2.09343543	      0.00000000	      1.08216976	     -0.00000000	     -3.04202015	      0.00000000	      0.00000000	      0.00000000	      0.00000000	      0.00000000	      0.00000000	      0.00000000	      0.00000000	      0.00000000	      0.00000000
     22.50500000	    191.70899932	    550.01230394	     23.06437230	      2.09108684	      0.00000000	      1.08219507	     -0.00000000	     -3.11142158	      0.00000000	      0.00000000	      0.00000000	      0.00000000	      0.00000000	      0.00000000	      0.00000000	      0.00000000	      0.00000000	      0.00000000
     22.50600000	    189.30776817	    528.51279879	     23.56981111	      2.08873825	      0.00000000	      1.08222037	     -0.00000000	     -3.18082300	      0.00000000	      0.00000000	      0.00000000	      0.00000000	      0.00000000	      0.00000000	      0.00000000	      0.00000000	      0.00000000	      0.00000000
     22.50700000	    186.74001269	    507.23853924	     24.01207585	      2.08647955	      0.00000000	      1.08225580	     -0.00000000	     -3.25190338	      0.00000000	      0.00000000	      0.00000000	      0.00000000	      0.00000000	      0.00000000	      0.00000000	      0.00000000	      0.00000000	      0.00000000
     22.50800000	    183.83920855	    486.41477091	     24.32799245	      2.08440063	      0.00000000	      1.08231147	     -0.00000000	     -3.32634165	      0.00000000	      0.00000000	      0.00000000	      0.00000000	      0.00000000	      0.00000000	      0.00000000	      0.00000000	      0.00000000	      0.00000000
     22.50900000	    180.93840441	    465.59100258	     24.64390906	      2.08232171	      0.00000000	      1.08236713	     -0.00000000	     -3.40077992	      0.00000000	      0.00000000	      0.00000000	      0.00000000	      0.00000000	      0.00000000	      0.00000000	      0.00000000	      0.00000000	      0.00000000
     22.51000000	    178.03760026	    444.76723425	     24.95982566	      2.08024279	      0.00000000	      1.08242280	     -0.00000000	     -3.47521819	      0.00000000	      0.00000000	      0.00000000	      0.00000000	      0.00000000	      0.00000000	      0.00000000	      0.00000000	      0.00000000	      0.00000000
     22.51100000	    174.75153232	    424.83372838	     25.10528755	      2.07843016	      0.00000000	      1.08250591	     -0.00000000	     -3.55329598	      0.00000000	      0.00000000	      0.00000000	      0.00000000	      0.00000000	      0.00000000	      0.00000000	      0.00000000	      0.00000000	      0.00000000
     22.51200000	    171.46546437	    404.90022252	     25.25074944	      2.07661754	      0.00000000	      1.08258902	     -0.00000000	     -3.63137378	      0.00000000	      0.00000000	      0.00000000	      0.00000000	      0.00000000	      0.00000000	      0.00000000	      0.00000000	      0.00000000	      0.00000000
     22.51300000	    168.17939642	    384.96671666	     25.39621132	      2.07480492	      0.00000000	      1.08267213	     -0.00000000	     -3.70945157	      0.00000000	      0.00000000	      0.00000000	      0.00000000	      0.00000000	      0.00000000	      0.00000000	      0.00000000	      0.00000000	      0.00000000
     22.51400000	    164.71487719	    365.75512558	     25.44319612	      2.07316435	      0.00000000	      1.08277095	     -0.00000000	     -3.78890616	      0.00000000	      0.00000000	      0.00000000	      0.00000000	      0.00000000	      0.00000000	      0.00000000	      0.00000000	      0.00000000	      0.00000000
     22.51500000	    161.16113232	    346.90449187	     25.44094238	      2.07160980	      0.00000000	      1.08287763	     -0.00000000	     -3.86904916	      0.00000000	      0.00000000	      0.00000000	      0.00000000	      0.00000000	      0.00000000	      0.00000000	      0.00000000	      0.00000000	      0.00000000
     22.51600000	    157.60738745	    328.05385817	     25.43868863	      2.07005526	      0.00000000	      1.08298431	     -0.00000000	     -3.94919215	      0.00000000	      0.00000000	      0.00000000	      0.00000000	      0.00000000	      0.00000000	      0.00000000	      0.00000000	      0.00000000	      0.00000000
     22.51700000	    154.00339233	    309.61947606	     25.39560266	      2.06858245	      0.00000000	      1.08309729	     -0.00000000	     -4.02946867	      0.00000000	      0.00000000	      0.00000000	      0.00000000	      0.00000000	      0.00000000	      0.00000000	      0.00000000	      0.00000000	      0.00000000
     22.51800000	    150.29889674	    292.01759713	     25.27085225	      2.06727312	      0.00000000	      1.08322289	     -0.00000000	     -4.11001223	     -0.00000000	      0.00000000	      0.00000000	      0.00000000	      0.00000000	      0.00000000	      0.00000000	      0.00000000	      0.00000000	      0.00000000
